<mxfile host="app.diagrams.net" agent="Mozilla/5.0 (Windows NT 10.0; Win64; x64) AppleWebKit/537.36 (KHTML, like Gecko) Chrome/130.0.0.0 Safari/537.36" version="24.8.3">
  <diagram name="Página-1" id="2eBkhQHsjQM-IckLyYbN">
    <mxGraphModel dx="1434" dy="738" grid="1" gridSize="10" guides="1" tooltips="1" connect="1" arrows="1" fold="1" page="1" pageScale="1" pageWidth="827" pageHeight="1169" math="0" shadow="0">
      <root>
        <mxCell id="0" />
        <mxCell id="1" parent="0" />
        <mxCell id="0WHFPVlW9NSKVv4E3361-19" style="edgeStyle=orthogonalEdgeStyle;rounded=0;orthogonalLoop=1;jettySize=auto;html=1;exitX=0.5;exitY=0.5;exitDx=0;exitDy=0;exitPerimeter=0;entryX=0;entryY=0.5;entryDx=0;entryDy=0;" edge="1" parent="1" source="0WHFPVlW9NSKVv4E3361-1" target="0WHFPVlW9NSKVv4E3361-17">
          <mxGeometry relative="1" as="geometry" />
        </mxCell>
        <mxCell id="0WHFPVlW9NSKVv4E3361-23" style="edgeStyle=orthogonalEdgeStyle;rounded=0;orthogonalLoop=1;jettySize=auto;html=1;exitX=0.5;exitY=0.5;exitDx=0;exitDy=0;exitPerimeter=0;" edge="1" parent="1" source="0WHFPVlW9NSKVv4E3361-1" target="0WHFPVlW9NSKVv4E3361-21">
          <mxGeometry relative="1" as="geometry" />
        </mxCell>
        <mxCell id="0WHFPVlW9NSKVv4E3361-24" style="edgeStyle=orthogonalEdgeStyle;rounded=0;orthogonalLoop=1;jettySize=auto;html=1;entryX=0.5;entryY=0;entryDx=0;entryDy=0;" edge="1" parent="1" source="0WHFPVlW9NSKVv4E3361-1" target="0WHFPVlW9NSKVv4E3361-22">
          <mxGeometry relative="1" as="geometry" />
        </mxCell>
        <mxCell id="0WHFPVlW9NSKVv4E3361-1" value="Jogador" style="shape=umlActor;verticalLabelPosition=bottom;verticalAlign=top;html=1;outlineConnect=0;" vertex="1" parent="1">
          <mxGeometry x="80" y="330" width="30" height="60" as="geometry" />
        </mxCell>
        <mxCell id="0WHFPVlW9NSKVv4E3361-4" style="edgeStyle=orthogonalEdgeStyle;rounded=0;orthogonalLoop=1;jettySize=auto;html=1;" edge="1" parent="1" source="0WHFPVlW9NSKVv4E3361-2" target="0WHFPVlW9NSKVv4E3361-3">
          <mxGeometry relative="1" as="geometry" />
        </mxCell>
        <mxCell id="0WHFPVlW9NSKVv4E3361-9" style="edgeStyle=orthogonalEdgeStyle;rounded=0;orthogonalLoop=1;jettySize=auto;html=1;exitX=0.25;exitY=0.1;exitDx=0;exitDy=0;exitPerimeter=0;" edge="1" parent="1" source="0WHFPVlW9NSKVv4E3361-2" target="0WHFPVlW9NSKVv4E3361-6">
          <mxGeometry relative="1" as="geometry" />
        </mxCell>
        <mxCell id="0WHFPVlW9NSKVv4E3361-2" value="Maquinas e peças" style="shape=umlActor;verticalLabelPosition=bottom;verticalAlign=top;html=1;outlineConnect=0;" vertex="1" parent="1">
          <mxGeometry x="680" y="320" width="30" height="60" as="geometry" />
        </mxCell>
        <mxCell id="0WHFPVlW9NSKVv4E3361-16" style="edgeStyle=orthogonalEdgeStyle;rounded=0;orthogonalLoop=1;jettySize=auto;html=1;exitX=0;exitY=1;exitDx=0;exitDy=0;entryX=0.5;entryY=1;entryDx=0;entryDy=0;" edge="1" parent="1" source="0WHFPVlW9NSKVv4E3361-3" target="0WHFPVlW9NSKVv4E3361-15">
          <mxGeometry relative="1" as="geometry" />
        </mxCell>
        <mxCell id="0WHFPVlW9NSKVv4E3361-3" value="Produzir gás" style="ellipse;whiteSpace=wrap;html=1;" vertex="1" parent="1">
          <mxGeometry x="620" y="120" width="120" height="80" as="geometry" />
        </mxCell>
        <mxCell id="0WHFPVlW9NSKVv4E3361-10" style="edgeStyle=orthogonalEdgeStyle;rounded=0;orthogonalLoop=1;jettySize=auto;html=1;dashed=1;entryX=0;entryY=0.5;entryDx=0;entryDy=0;" edge="1" parent="1" source="0WHFPVlW9NSKVv4E3361-6" target="0WHFPVlW9NSKVv4E3361-12">
          <mxGeometry relative="1" as="geometry">
            <mxPoint x="550" y="160" as="targetPoint" />
          </mxGeometry>
        </mxCell>
        <mxCell id="0WHFPVlW9NSKVv4E3361-6" value="perda de durabilidade" style="ellipse;whiteSpace=wrap;html=1;" vertex="1" parent="1">
          <mxGeometry x="310" y="120" width="120" height="80" as="geometry" />
        </mxCell>
        <mxCell id="0WHFPVlW9NSKVv4E3361-14" style="edgeStyle=orthogonalEdgeStyle;rounded=0;orthogonalLoop=1;jettySize=auto;html=1;exitX=1;exitY=0.5;exitDx=0;exitDy=0;entryX=0;entryY=0.5;entryDx=0;entryDy=0;dashed=1;" edge="1" parent="1" source="0WHFPVlW9NSKVv4E3361-12" target="0WHFPVlW9NSKVv4E3361-3">
          <mxGeometry relative="1" as="geometry" />
        </mxCell>
        <mxCell id="0WHFPVlW9NSKVv4E3361-12" value="redução de produção" style="rounded=0;whiteSpace=wrap;html=1;" vertex="1" parent="1">
          <mxGeometry x="460" y="90" width="120" height="60" as="geometry" />
        </mxCell>
        <mxCell id="0WHFPVlW9NSKVv4E3361-15" value="Pontuação geral da fase" style="rhombus;whiteSpace=wrap;html=1;" vertex="1" parent="1">
          <mxGeometry x="414" y="530" width="163" height="171" as="geometry" />
        </mxCell>
        <mxCell id="0WHFPVlW9NSKVv4E3361-17" value="Recuperar durabilidade" style="ellipse;whiteSpace=wrap;html=1;" vertex="1" parent="1">
          <mxGeometry x="370" y="370" width="120" height="80" as="geometry" />
        </mxCell>
        <mxCell id="0WHFPVlW9NSKVv4E3361-18" style="edgeStyle=orthogonalEdgeStyle;rounded=0;orthogonalLoop=1;jettySize=auto;html=1;entryX=0.5;entryY=0.5;entryDx=0;entryDy=0;entryPerimeter=0;" edge="1" parent="1" source="0WHFPVlW9NSKVv4E3361-17" target="0WHFPVlW9NSKVv4E3361-2">
          <mxGeometry relative="1" as="geometry" />
        </mxCell>
        <mxCell id="0WHFPVlW9NSKVv4E3361-21" value="Caminhar" style="ellipse;whiteSpace=wrap;html=1;" vertex="1" parent="1">
          <mxGeometry x="120" y="450" width="120" height="80" as="geometry" />
        </mxCell>
        <mxCell id="0WHFPVlW9NSKVv4E3361-22" value="trocar de sessões" style="ellipse;whiteSpace=wrap;html=1;" vertex="1" parent="1">
          <mxGeometry x="50" y="190" width="120" height="80" as="geometry" />
        </mxCell>
      </root>
    </mxGraphModel>
  </diagram>
</mxfile>
